<svg width="30" height="30" viewBox="0 0 30 30" fill="none" xmlns="http://www.w3.org/2000/svg">
<path d="M15.9375 25.3125V19.6875H19.6875L15 14.0625L10.3125 19.6875H14.0625V25.3125H9.375V25.2656C9.2175 25.275 9.0675 25.3125 8.90625 25.3125C7.04145 25.3125 5.25302 24.5717 3.93441 23.2531C2.61579 21.9345 1.875 20.1461 1.875 18.2812C1.875 14.6737 4.60312 11.7338 8.10375 11.3306C8.41068 9.72618 9.2671 8.27883 10.5257 7.23751C11.7843 6.1962 13.3665 5.626 15 5.625C16.6338 5.6259 18.2162 6.19602 19.4751 7.23732C20.734 8.27861 21.5908 9.72602 21.8981 11.3306C25.3987 11.7338 28.1231 14.6737 28.1231 18.2812C28.1231 20.1461 27.3823 21.9345 26.0637 23.2531C24.7451 24.5717 22.9567 25.3125 21.0919 25.3125C20.9344 25.3125 20.7825 25.275 20.6231 25.2656V25.3125H15.9375Z" fill="#3486FA"/>
</svg>
